<?xml version="1.0" standalone="no"?>
<!DOCTYPE svg PUBLIC "-//W3C//DTD SVG 20010904//EN"
 "http://www.w3.org/TR/2001/REC-SVG-20010904/DTD/svg10.dtd">
<svg version="1.0" xmlns="http://www.w3.org/2000/svg"
 width="210.000000pt" height="210.000000pt" viewBox="0 0 210.000000 210.000000"
 preserveAspectRatio="xMidYMid meet">
<metadata>
Created by potrace 1.11, written by Peter Selinger 2001-2013
</metadata>
<g transform="translate(0.000000,210.000000) scale(0.100000,-0.100000)"
fill="#000000" stroke="none">
<path d="M1091 1687 c-52 -89 -134 -231 -183 -315 l-88 -152 30 -46 29 -46 24
39 c13 21 55 92 92 158 38 66 72 122 76 125 3 3 9 15 13 27 4 13 13 29 19 36
12 12 31 45 67 114 16 30 19 31 32 15 8 -9 37 -55 63 -102 44 -77 114 -200
167 -290 11 -19 54 -93 96 -165 41 -71 82 -138 90 -147 8 -10 11 -18 7 -18 -4
0 -2 -8 6 -17 13 -16 27 -41 63 -108 6 -11 14 -22 17 -25 3 -3 21 -32 39 -65
18 -33 43 -76 55 -95 12 -19 25 -42 28 -50 4 -8 17 -31 28 -50 12 -19 32 -54
46 -77 l25 -43 -39 -1 c-21 0 -161 -1 -310 -1 -150 -1 -273 -2 -273 -3 0 -1
12 -23 26 -49 l26 -46 369 0 c204 0 369 3 367 8 -23 48 -34 68 -39 72 -3 3
-16 25 -29 50 -14 25 -29 52 -36 60 -6 8 -22 35 -35 60 -13 25 -26 47 -29 50
-3 3 -12 19 -21 35 -9 17 -49 86 -89 155 -40 69 -81 141 -92 160 -11 19 -35
60 -54 91 -19 31 -34 62 -34 68 0 6 -3 11 -7 11 -5 0 -13 10 -19 23 -17 35
-49 92 -54 97 -5 5 -12 17 -52 89 -11 20 -42 73 -69 117 -27 45 -49 85 -49 89
0 5 -11 23 -25 41 -14 18 -25 35 -25 37 0 11 -139 241 -146 244 -5 1 -51 -71
-103 -160z"/>
<path d="M502 1413 c-18 -32 -57 -98 -86 -148 -30 -49 -68 -117 -86 -150 -18
-33 -35 -62 -39 -65 -3 -3 -12 -16 -19 -30 -6 -14 -16 -32 -21 -40 -21 -34
-98 -166 -104 -180 -4 -8 -16 -28 -27 -45 -11 -16 -25 -41 -32 -55 -6 -14 -18
-33 -27 -43 -8 -9 -11 -20 -8 -23 5 -5 398 -9 507 -5 23 1 34 13 57 69 4 9
-42 12 -211 12 l-216 0 32 58 c17 31 37 64 43 72 7 8 27 44 46 80 19 36 37 67
40 70 3 3 18 28 34 55 74 134 148 255 156 255 5 0 9 -7 9 -15 0 -8 5 -15 10
-15 6 0 10 -4 10 -9 0 -5 13 -31 29 -58 16 -26 79 -131 138 -233 60 -102 173
-290 251 -418 l141 -234 36 56 c19 30 35 57 35 59 0 3 35 67 78 144 42 76 86
155 96 174 l19 36 -25 37 -25 37 -17 -25 c-9 -14 -16 -28 -16 -30 0 -3 -14
-29 -31 -58 -17 -29 -51 -91 -76 -138 -70 -130 -68 -127 -89 -93 -10 15 -22
31 -27 34 -5 3 -8 9 -7 13 0 4 -35 64 -78 134 -43 70 -90 146 -103 169 -13 23
-64 108 -114 189 -49 82 -94 156 -100 166 -5 9 -34 59 -63 110 -29 51 -61 103
-71 116 l-17 24 -32 -59z"/>
</g>
</svg>
